<svg width="58" height="46" viewBox="0 0 58 46" fill="none" xmlns="http://www.w3.org/2000/svg">
<g id="pinLeft">
<g id="label2">
<path id="background" d="M6.85714 15H31.1429C33.8254 15 36 17.5584 36 20.7143V25.2857C36 28.4416 33.8254 31 31.1429 31H6.85714C4.17462 31 2 28.4416 2 25.2857V20.7143C2 17.5584 4.17462 15 6.85714 15Z" fill="#E0535D" stroke="#8E3339"/>
<text id="text" fill="white" xml:space="preserve" style="white-space: pre" font-family="Arial" font-size="11" font-weight="bold" letter-spacing="0em"><tspan x="5" y="27.3135">22</tspan></text>
</g>
<g id="pin">
<g id="icon">
<path id="vector" fill-rule="evenodd" clip-rule="evenodd" d="M35.4624 7.76315C31.2549 7.76315 27.4457 9.46859 24.6883 12.2259C21.931 14.9832 20.2256 18.7925 20.2256 23C20.2256 25.987 21.085 28.7734 22.5703 31.1251C24.1259 33.588 26.3676 35.5743 29.027 36.8153L35.4624 45.18L41.8988 36.8148C44.558 35.5737 46.7994 33.5874 48.3548 31.1246C49.84 28.773 50.6992 25.9869 50.6992 23C50.6992 18.7925 48.9938 14.9832 46.2365 12.2259C43.4792 9.46859 39.6699 7.76315 35.4624 7.76315Z" fill="#E0535D" stroke="#8E3339"/>
</g>
</g>
<path id="transport" d="M34.3768 13.3357C33.1347 13.4348 32.4903 13.522 31.5237 13.7241C30.3282 13.9776 29.2606 14.3224 28.4882 14.7186C27.836 15.0475 27.506 15.3131 27.3664 15.626C27.2965 15.7766 27.2926 16.046 27.2926 22.1838C27.2926 26.4633 27.3082 28.6703 27.3354 28.8407C27.4248 29.4232 27.8439 30.0057 28.3525 30.2671L28.5931 30.3899L28.6124 31.2735C28.6318 32.1532 28.6318 32.157 28.7405 32.3195C28.7986 32.4108 28.919 32.5255 29.0121 32.5731C29.1636 32.6562 29.2334 32.6643 29.9165 32.6761C30.8053 32.6921 30.9335 32.6683 31.1586 32.4265C31.372 32.2005 31.4069 32.0262 31.4069 31.1782V30.5047H39.481V31.2854C39.481 32.1689 39.5159 32.3077 39.7565 32.4979C39.9623 32.6526 40.1447 32.6842 40.8823 32.6842C41.6042 32.6842 41.7401 32.6604 41.9575 32.4979C42.2137 32.3038 42.237 32.1929 42.237 31.2497V30.4056L42.5009 30.2669C42.827 30.0966 43.1919 29.7281 43.3355 29.4268C43.5722 28.9277 43.5568 29.3515 43.549 22.1993L43.5373 15.6612L43.4286 15.4949C43.2617 15.2373 42.924 14.9917 42.3341 14.6945C40.9637 14.0091 38.7823 13.4978 36.589 13.3472C36.0537 13.312 34.7494 13.3039 34.3768 13.3357ZM38.1178 14.8735C38.3474 15.0716 38.3513 15.3807 38.1217 15.5866C38.0361 15.6659 37.9817 15.6659 35.4873 15.6659H32.9385L32.8256 15.5353C32.6271 15.3094 32.701 14.9213 32.9618 14.8142C33.0045 14.7944 34.1603 14.7785 35.5223 14.7785L37.9972 14.7745L38.1178 14.8735ZM35.0616 17.0989C35.2707 17.2178 35.2707 17.2021 35.2591 19.6112L35.2475 21.8377L35.1199 21.9529L34.9959 22.068H32.0382C29.1157 22.068 29.0807 22.068 28.9839 21.9847C28.9259 21.941 28.8639 21.8379 28.8407 21.7585C28.8099 21.6592 28.802 20.9211 28.8099 19.4684C28.8215 17.0831 28.8138 17.1467 29.0847 17.0753C29.1506 17.0555 30.5053 17.0436 32.0923 17.0436C34.3338 17.0472 34.9957 17.0591 35.0616 17.0989ZM41.9163 17.0957C42.1254 17.2147 42.1254 17.199 42.1138 19.6096L42.1022 21.8376L41.9745 21.9528L41.8506 22.068H35.928L35.804 21.9528L35.6764 21.8376L35.6648 19.6772C35.6571 18.4898 35.6648 17.4652 35.6764 17.3937C35.7112 17.1873 35.8156 17.092 36.0287 17.0642C36.1331 17.0523 37.4802 17.0404 39.0247 17.0444C41.1924 17.044 41.8504 17.0559 41.9163 17.0957ZM30.6011 24.3845C30.8581 24.5129 31.065 24.7455 31.1916 25.0383C31.276 25.2348 31.2875 25.299 31.2721 25.6078C31.2606 25.9045 31.2376 25.9889 31.1378 26.1774C30.6356 27.116 29.3435 27.0597 28.918 26.0812C28.6114 25.3714 28.964 24.5492 29.6809 24.3044C29.934 24.2162 30.348 24.2523 30.6011 24.3845ZM41.3736 24.3519C41.8828 24.5861 42.2044 25.1871 42.0972 25.7219C42.013 26.155 41.7526 26.5025 41.3736 26.6781C41.1133 26.7991 40.6117 26.7991 40.3668 26.6741C39.9189 26.4516 39.6776 26.0926 39.6508 25.6124C39.6317 25.2611 39.6813 25.0582 39.8461 24.8083C40.1024 24.4182 40.4662 24.2347 40.9256 24.2581C41.0865 24.266 41.2664 24.3049 41.3736 24.3519ZM26.4894 17.1073C26.2624 17.195 26.0091 17.4503 25.8841 17.7137L25.7782 17.9411L25.7782 19.6367C25.7782 21.2764 25.782 21.3362 25.8576 21.5159C25.903 21.6156 25.9937 21.7592 26.0581 21.8431C26.2055 22.0187 26.5952 22.2301 26.7693 22.2301H26.8941L26.8941 17.0436L26.773 17.0477C26.7049 17.0474 26.5763 17.0752 26.4894 17.1073ZM44.0307 17.0436V22.2301H44.1367C44.4583 22.2301 44.8629 21.9395 45.0445 21.5774L45.1466 21.3743V17.9114L45.0445 17.7083C44.8667 17.3541 44.5528 17.1112 44.216 17.0675L44.0307 17.0436Z" fill="white"/>
</g>
</svg>
