<svg width="58" height="46" viewBox="0 0 58 46" fill="none" xmlns="http://www.w3.org/2000/svg">
<g id="pinRight">
<g id="label3">
<path id="labelBackground" d="M52.5 15.8684H27.5C24.7386 15.8684 22.5 18.107 22.5 20.8684V24.8684C22.5 27.6298 24.7386 29.8684 27.5 29.8684H52.5C55.2614 29.8684 57.5 27.6298 57.5 24.8684V20.8684C57.5 18.107 55.2614 15.8684 52.5 15.8684Z" fill="#E0535D" stroke="#8E3339"/>
<text id="labelText" fill="white" xml:space="preserve" style="white-space: pre" font-family="Arial" font-size="10" font-weight="bold" letter-spacing="0em"><tspan x="39" y="25.9668">222</tspan></text>
</g>
<g id="pin">
<g id="icon">
<path id="vector" fill-rule="evenodd" clip-rule="evenodd" d="M22.5376 7.76315C26.7451 7.76315 30.5543 9.46859 33.3117 12.2259C36.069 14.9832 37.7744 18.7925 37.7744 23C37.7744 25.987 36.915 28.7734 35.4297 31.1251C33.8741 33.588 31.6324 35.5743 28.973 36.8153L22.5376 45.18L16.1012 36.8148C13.442 35.5737 11.2006 33.5874 9.64519 31.1246C8.16004 28.773 7.30075 25.9869 7.30075 23C7.30075 18.7925 9.00619 14.9832 11.7635 12.2259C14.5208 9.46859 18.3301 7.76315 22.5376 7.76315Z" fill="#E0535D" stroke="#8E3339"/>
</g>
</g>
<path id="transport" d="M23.6232 13.3357C24.8653 13.4348 25.5097 13.522 26.4763 13.7241C27.6718 13.9776 28.7394 14.3224 29.5118 14.7186C30.164 15.0475 30.494 15.3131 30.6336 15.626C30.7035 15.7766 30.7074 16.046 30.7074 22.1838C30.7074 26.4633 30.6918 28.6703 30.6646 28.8407C30.5752 29.4232 30.1561 30.0057 29.6475 30.2671L29.4069 30.3899L29.3876 31.2735C29.3682 32.1532 29.3682 32.157 29.2595 32.3195C29.2014 32.4108 29.081 32.5255 28.9879 32.5731C28.8364 32.6562 28.7666 32.6643 28.0835 32.6761C27.1947 32.6921 27.0665 32.6683 26.8414 32.4265C26.628 32.2005 26.5931 32.0262 26.5931 31.1782V30.5047H18.519V31.2854C18.519 32.1689 18.4841 32.3077 18.2435 32.4979C18.0377 32.6526 17.8553 32.6842 17.1177 32.6842C16.3958 32.6842 16.2599 32.6604 16.0425 32.4979C15.7863 32.3038 15.763 32.1929 15.763 31.2497V30.4056L15.4991 30.2669C15.173 30.0966 14.8081 29.7281 14.6645 29.4268C14.4278 28.9277 14.4432 29.3515 14.451 22.1993L14.4627 15.6612L14.5714 15.4949C14.7383 15.2373 15.076 14.9917 15.6659 14.6945C17.0363 14.0091 19.2177 13.4978 21.411 13.3472C21.9463 13.312 23.2506 13.3039 23.6232 13.3357ZM19.8822 14.8735C19.6526 15.0716 19.6487 15.3807 19.8783 15.5866C19.9639 15.6659 20.0183 15.6659 22.5127 15.6659H25.0615L25.1744 15.5353C25.3729 15.3094 25.299 14.9213 25.0382 14.8142C24.9955 14.7944 23.8397 14.7785 22.4777 14.7785L20.0028 14.7745L19.8822 14.8735ZM22.9384 17.0989C22.7293 17.2178 22.7293 17.2021 22.7409 19.6112L22.7525 21.8377L22.8801 21.9529L23.0041 22.068H25.9618C28.8843 22.068 28.9193 22.068 29.0161 21.9847C29.0741 21.941 29.1361 21.8379 29.1593 21.7585C29.1901 21.6592 29.198 20.9211 29.1901 19.4684C29.1785 17.0831 29.1862 17.1467 28.9153 17.0753C28.8494 17.0555 27.4947 17.0436 25.9077 17.0436C23.6662 17.0472 23.0043 17.0591 22.9384 17.0989ZM16.0837 17.0957C15.8746 17.2147 15.8746 17.199 15.8862 19.6096L15.8978 21.8376L16.0255 21.9528L16.1494 22.068H22.072L22.196 21.9528L22.3236 21.8376L22.3352 19.6772C22.3429 18.4898 22.3352 17.4652 22.3236 17.3937C22.2888 17.1873 22.1844 17.092 21.9713 17.0642C21.8669 17.0523 20.5198 17.0404 18.9753 17.0444C16.8076 17.044 16.1496 17.0559 16.0837 17.0957ZM27.3989 24.3845C27.1419 24.5129 26.935 24.7455 26.8084 25.0383C26.724 25.2348 26.7125 25.299 26.7279 25.6078C26.7394 25.9045 26.7624 25.9889 26.8622 26.1774C27.3644 27.116 28.6565 27.0597 29.082 26.0812C29.3886 25.3714 29.036 24.5492 28.3191 24.3044C28.066 24.2162 27.652 24.2523 27.3989 24.3845ZM16.6264 24.3519C16.1172 24.5861 15.7956 25.1871 15.9028 25.7219C15.987 26.155 16.2474 26.5025 16.6264 26.6781C16.8867 26.7991 17.3883 26.7991 17.6332 26.6741C18.0811 26.4516 18.3224 26.0926 18.3492 25.6124C18.3683 25.2611 18.3187 25.0582 18.1539 24.8083C17.8976 24.4182 17.5338 24.2347 17.0744 24.2581C16.9135 24.266 16.7336 24.3049 16.6264 24.3519ZM31.5106 17.1073C31.7376 17.195 31.9909 17.4503 32.1159 17.7137L32.2218 17.9411V19.6367C32.2218 21.2764 32.218 21.3362 32.1424 21.5159C32.097 21.6156 32.0063 21.7592 31.9419 21.8431C31.7945 22.0187 31.4048 22.2301 31.2307 22.2301H31.1059L31.1059 17.0436L31.227 17.0477C31.2951 17.0474 31.4237 17.0752 31.5106 17.1073ZM13.9693 17.0436L13.9693 22.2301H13.8633C13.5417 22.2301 13.1371 21.9395 12.9555 21.5774L12.8534 21.3743L12.8534 17.9114L12.9555 17.7083C13.1333 17.3541 13.4472 17.1112 13.784 17.0675L13.9693 17.0436Z" fill="white"/>
</g>
</svg>
